<svg width="87" height="87" viewBox="0 0 87 87" fill="none" xmlns="http://www.w3.org/2000/svg">
<ellipse cx="43.5" cy="43.1286" rx="43.5" ry="43.1286" fill="#EFF4E4"/>
<g clip-path="url(#clip0_416_57)">
<path d="M32.7805 13.8582C33.3163 14.1153 33.8075 14.3621 34.1622 14.866C34.226 14.9567 34.5584 15.5409 34.5584 15.5825V19.1992H41.1121V15.8055C41.1121 15.028 42.2608 14.0128 43.0013 13.8582H44.0016C44.7406 14.2075 45.3803 14.5211 45.6934 15.3357C45.729 15.4294 45.8908 15.9868 45.8908 16.0285V19.1992H52.3346V16.0285C52.3346 15.9868 52.4964 15.4294 52.532 15.3357C52.8452 14.5211 53.4848 14.2075 54.2239 13.8582H55.2241C55.8949 14.1034 56.4811 14.4334 56.824 15.0934C56.8729 15.1886 57.1119 15.7668 57.1119 15.8055V19.1992H60.2774C62.9265 19.1992 65.9495 22.5096 65.997 25.1541L66.0029 64.7679C65.7121 67.9833 63.25 70.4776 60.0533 70.8269C48.6794 70.711 37.2565 71.0692 25.9122 70.6456C23.2736 69.9261 21.2092 67.6637 21.0029 64.8809L21.0193 24.8315C21.132 22.3089 24.2293 19.1992 26.727 19.1992H29.8925V15.5825C29.8925 15.5409 30.2235 14.9567 30.2888 14.866C30.6449 14.3621 31.1347 14.1153 31.6704 13.8582H32.782H32.7805ZM32.1943 32.9107C29.8183 33.7253 29.8614 36.8692 32.3071 37.5322L45.1577 37.5486C47.6004 36.9688 47.6657 33.6004 45.2512 32.9122H32.1943V32.9107ZM32.4184 42.3708C29.5556 43.0353 29.9385 46.9448 32.8384 47.1261H56.496C59.5858 46.8362 59.706 42.8346 56.7201 42.3425L32.4184 42.3708ZM32.6455 51.8324C29.7204 52.1996 29.7397 56.1908 32.6128 56.5862H56.7201C59.7001 56.1001 59.5903 52.094 56.496 51.8027L32.6455 51.8324Z" fill="#025246"/>
<path d="M56.7808 41.5925L56.8423 41.6023C58.7185 41.9116 59.6937 43.3738 59.6362 44.8396C59.5786 46.3099 58.4884 47.6924 56.5659 47.8728L56.5308 47.8757H32.8149L32.7915 47.8748C30.9484 47.7594 29.8536 46.4239 29.7212 44.9988C29.5883 43.5666 30.429 42.062 32.2495 41.6404L32.3325 41.6208H32.4175L56.7192 41.5925H56.7808Z" fill="#88B32A" stroke="white" stroke-width="1.5"/>
<path d="M56.5305 51.0526L56.5667 51.0555C58.4922 51.2369 59.5802 52.6217 59.636 54.0927C59.6914 55.558 58.7156 57.0202 56.8411 57.326L56.7805 57.3358H32.5618L32.511 57.329C28.8041 56.8188 28.7202 51.5687 32.552 51.0878L32.5979 51.0829L32.6448 51.0819L56.4954 51.0526H56.5305Z" fill="#88B32A" stroke="white" stroke-width="1.5"/>
<path d="M45.3557 32.1606L45.4573 32.1899C48.6036 33.0889 48.534 37.52 45.3303 38.2788L45.2444 38.2983H45.1565L32.3059 38.2817H32.2063L32.1106 38.2563C30.5624 37.8366 29.7195 36.5928 29.6936 35.2935C29.6679 34.0004 30.4522 32.7159 31.9504 32.2017L32.0696 32.1606H45.3557Z" fill="#88B32A" stroke="white" stroke-width="1.5"/>
</g>
<defs>
<clipPath id="clip0_416_57">
<rect width="45" height="57" fill="white" transform="translate(21 13.8582)"/>
</clipPath>
</defs>
</svg>
