<svg width="87" height="87" viewBox="0 0 87 87" fill="none" xmlns="http://www.w3.org/2000/svg">
<ellipse cx="43.5" cy="43.1286" rx="43.5" ry="43.1286" fill="#EFF4E4"/>
<ellipse cx="43.5" cy="43.1286" rx="43.5" ry="43.1286" fill="#EFF4E4"/>
<g clip-path="url(#clip0_416_50)">
<path d="M37.643 18.256C54.8549 16.8477 66.138 35.1098 57.0596 49.8834C56.8558 50.2124 55.9897 51.2455 56.0545 51.5003L67.384 62.9106C69.3895 65.5605 66.1148 68.5949 63.5998 66.4546L52.3305 55.2249C52.1221 55.1693 51.0197 56.0403 50.714 56.2302C35.9571 65.2408 17.9022 54.178 19.0509 37.0185C19.6994 27.3824 28.0552 19.039 37.643 18.256ZM38.9724 23.3288C27.995 23.8338 20.987 35.3183 25.5957 45.3388C30.8389 56.7352 47.0688 57.3282 53.1596 46.3441C59.0096 35.7908 50.9966 22.7729 38.9724 23.3288Z" fill="#025246"/>
<path d="M39.1431 27.5271C42.2284 27.0991 45.2139 28.4939 47.3784 30.6082C49.4924 32.6733 50.9607 35.5531 51.0054 38.446V38.7263C50.9738 40.5681 49.7289 41.8531 48.2993 42.2585C46.8552 42.668 45.1323 42.1975 44.2524 40.5281L44.2515 40.5261C43.8805 39.8186 43.8042 39.0741 43.7417 38.5212C43.6739 37.9218 43.6191 37.4771 43.4243 37.0437H43.4233C43.0258 36.1582 42.0861 35.2839 41.1694 34.9304H41.1675C40.6733 34.7384 40.2128 34.7495 39.3921 34.6414C38.6561 34.5444 37.7302 34.3361 36.9868 33.5066H36.9858C35.1546 31.4608 36.176 27.9665 39.0571 27.5378L39.1304 27.5271H39.1431Z" fill="#88B32A" stroke="white" stroke-width="2"/>
</g>
<defs>
<clipPath id="clip0_416_50">
<rect width="49" height="49" fill="white" transform="translate(19 18.1772)"/>
</clipPath>
</defs>
</svg>
